<svg width="56" height="56" viewBox="0 0 56 56" fill="none" xmlns="http://www.w3.org/2000/svg">
<path d="M28.0002 53.6667C42.1755 53.6667 53.6668 42.1753 53.6668 28C53.6668 13.8247 42.1755 2.33333 28.0002 2.33333C13.8249 2.33333 2.3335 13.8247 2.3335 28C2.3335 42.1753 13.8249 53.6667 28.0002 53.6667Z" fill="#F9C6B1" stroke="#2D3D54" stroke-width="2" stroke-miterlimit="10" stroke-linecap="round" stroke-linejoin="round"/>
<path d="M2.45264 25.5103C9.89014 15.5937 23.042 26.9302 37.3336 14C44.3336 25.0833 53.562 25.6573 53.562 25.6573" stroke="#2D3D54" stroke-width="2" stroke-miterlimit="10" stroke-linecap="round" stroke-linejoin="round"/>
<path d="M19.8467 37.7129C21.8593 39.7319 24.7667 41 27.9999 41C31.0771 41 33.8591 39.8514 35.8555 38" stroke="#2D3D54" stroke-width="2" stroke-linecap="round"/>
<path d="M36 33C37.6569 33 39 31.6569 39 30C39 28.3431 37.6569 27 36 27C34.3431 27 33 28.3431 33 30C33 31.6569 34.3431 33 36 33Z" fill="#2D3D54"/>
<path d="M20 33C21.6569 33 23 31.6569 23 30C23 28.3431 21.6569 27 20 27C18.3431 27 17 28.3431 17 30C17 31.6569 18.3431 33 20 33Z" fill="#2D3D54"/>
</svg>
