<svg width="56" height="40" viewBox="0 0 56 40" fill="none" xmlns="http://www.w3.org/2000/svg">
<g clip-path="url(#clip0_2154_223)">
<rect width="56" height="43" fill="white"/>
<path d="M17.6854 10.6367C20.5318 10.6367 22.779 12.8839 22.779 15.7303V24.7191C22.779 25.618 22.03 26.367 21.1311 26.367H19.1835V36.4045C19.1835 37.603 18.2846 38.5019 17.0861 38.5019H13.3408C12.1423 38.5019 11.2435 37.603 11.2435 36.4045V26.367H9.29589C8.39701 26.367 7.64795 25.618 7.64795 24.7191V15.7303C7.64795 12.8839 9.89514 10.6367 12.7416 10.6367H17.6854Z" fill="#A4EBDD"/>
<path d="M15.1385 7.79026C17.2898 7.79026 19.0337 6.04635 19.0337 3.89513C19.0337 1.74391 17.2898 0 15.1385 0C12.9873 0 11.2434 1.74391 11.2434 3.89513C11.2434 6.04635 12.9873 7.79026 15.1385 7.79026Z" fill="#2D3D54"/>
<path d="M17.6854 9.6367C20.5318 9.6367 22.779 11.8839 22.779 14.7303V23.7191C22.779 24.618 22.03 25.367 21.1311 25.367H19.1835V35.4045C19.1835 36.603 18.2847 37.5019 17.0861 37.5019H13.3408C12.1423 37.5019 11.2435 36.603 11.2435 35.4045V25.367H9.29589C8.39701 25.367 7.64795 24.618 7.64795 23.7191V14.7303C7.64795 11.8839 9.89514 9.6367 12.7416 9.6367H17.6854Z" stroke="#2D3D54" stroke-width="2" stroke-miterlimit="10" stroke-linecap="square" stroke-linejoin="round"/>
</g>
<defs>
<clipPath id="clip0_2154_223">
<rect width="56" height="40" fill="white"/>
</clipPath>
</defs>
</svg>
