<svg width="56" height="40" viewBox="0 0 56 40" fill="none" xmlns="http://www.w3.org/2000/svg">
<g clip-path="url(#clip0_2154_87)">
<rect width="60" height="43" fill="white"/>
<path d="M26.8711 37.8528H31.6C32.7822 37.8528 33.6689 36.969 33.6689 35.7907V27.5427H36.92C38.5456 27.5427 39.7278 25.9225 39.1367 24.4496L34.7033 12.814C34.1122 11.3411 32.7822 10.4574 31.1567 10.4574H25.8367H17.8567H10.0244C7.21667 10.4574 5 12.6667 5 15.4651V24.3023C5 25.1861 5.73889 25.9225 6.62556 25.9225H8.54667V35.7907C8.54667 36.969 9.43334 37.8528 10.6156 37.8528H16.3789H26.8711Z" fill="#B3E9DD"/>
<path d="M13.2756 7.65892C15.3976 7.65892 17.1178 5.94441 17.1178 3.82946C17.1178 1.71451 15.3976 0 13.2756 0C11.1536 0 9.43335 1.71451 9.43335 3.82946C9.43335 5.94441 11.1536 7.65892 13.2756 7.65892Z" fill="#2D3D54"/>
<path d="M28.6442 7.65891C30.1949 7.65891 31.452 6.40601 31.452 4.86047C31.452 3.31492 30.1949 2.06202 28.6442 2.06202C27.0935 2.06202 25.8364 3.31492 25.8364 4.86047C25.8364 6.40601 27.0935 7.65891 28.6442 7.65891Z" fill="#2D3D54"/>
<mask id="mask0_2154_87" style="mask-type:alpha" maskUnits="userSpaceOnUse" x="5" y="10" width="35" height="28">
<path d="M26.8711 37.8527H31.6C32.7822 37.8527 33.6689 36.969 33.6689 35.7907V27.5427H36.92C38.5456 27.5427 39.7278 25.9225 39.1367 24.4496L34.7033 12.814C34.1122 11.3411 32.7822 10.4574 31.1567 10.4574H25.8367H17.8567H10.0244C7.21667 10.4574 5 12.6667 5 15.4651V24.3023C5 25.1861 5.73889 25.9225 6.62556 25.9225H8.54667V35.7907C8.54667 36.969 9.43334 37.8527 10.6156 37.8527H16.3789H26.8711Z" fill="#F9C6B1"/>
</mask>
<g mask="url(#mask0_2154_87)">
<rect x="3.83936" y="9.65935" width="19.0238" height="32.7631" fill="#F9C6B1"/>
</g>
<path d="M17.8567 10.4574H10.0244C7.21667 10.4574 5 12.6667 5 15.4651V24.3023C5 25.1861 5.73889 25.9225 6.62556 25.9225H8.54667V35.7907C8.54667 36.969 9.43334 37.8528 10.6156 37.8528H16.3789" stroke="#2D3D54" stroke-width="2" stroke-miterlimit="10" stroke-linecap="square" stroke-linejoin="round"/>
<path d="M25.8364 10.4574H31.1564C32.6342 10.4574 34.112 11.3411 34.7031 12.814L39.1365 24.4496C39.7276 25.9225 38.5453 27.5427 36.9198 27.5427H33.6687V35.7907C33.6687 36.969 32.782 37.8528 31.5998 37.8528H26.8709" stroke="#2D3D54" stroke-width="2" stroke-miterlimit="10" stroke-linecap="square" stroke-linejoin="round"/>
<path d="M21.6989 20.7675C23.2496 20.7675 24.5067 19.5145 24.5067 17.969C24.5067 16.4235 23.2496 15.1706 21.6989 15.1706C20.1482 15.1706 18.8911 16.4235 18.8911 17.969C18.8911 19.5145 20.1482 20.7675 21.6989 20.7675Z" fill="#2D3D54"/>
<path d="M24.211 37.8527V33.4341H26.5754V26.5116C26.5754 25.0388 25.3932 23.7132 23.7677 23.7132H19.4821C18.0043 23.7132 16.6743 24.8915 16.6743 26.5116V33.5814H19.0388V38" fill="white"/>
<path d="M24.211 37.8527V33.4341H26.5754V26.5116C26.5754 25.0388 25.3932 23.7132 23.7677 23.7132H19.4821C18.0043 23.7132 16.6743 24.8915 16.6743 26.5116V33.5814H19.0388V38" stroke="#2D3D54" stroke-width="2" stroke-miterlimit="10" stroke-linecap="square" stroke-linejoin="round"/>
</g>
<defs>
<clipPath id="clip0_2154_87">
<rect width="56" height="40" fill="white"/>
</clipPath>
</defs>
</svg>
