<svg width="56" height="40" viewBox="0 0 56 40" fill="none" xmlns="http://www.w3.org/2000/svg">
<path d="M11.0528 7.6377C13.1689 7.6377 14.8843 5.92794 14.8843 3.81885C14.8843 1.70976 13.1689 0 11.0528 0C8.93665 0 7.22119 1.70976 7.22119 3.81885C7.22119 5.92794 8.93665 7.6377 11.0528 7.6377Z" fill="#2D3D54"/>
<path d="M10.6106 10.4284C7.81062 10.4284 5.6001 12.6316 5.6001 15.4223V24.235C5.6001 25.1163 6.33694 25.8507 7.22115 25.8507H9.13694V35.6915C9.13694 36.8666 10.0211 37.7478 11.2001 37.7478" stroke="#2D3D54" stroke-width="2" stroke-miterlimit="10" stroke-linecap="square" stroke-linejoin="round"/>
<path d="M36.2639 37.7479H40.9797C42.1586 37.7479 43.0428 36.8666 43.0428 35.6916V27.4663H46.2849C47.906 27.4663 49.0849 25.8507 48.4955 24.3819L44.0744 12.7785C43.4849 11.3097 42.1586 10.4284 40.5376 10.4284H35.2323H27.2744H19.4639C16.6639 10.4284 14.4534 12.6316 14.4534 15.4223V24.235C14.4534 25.1163 15.1902 25.8507 16.0744 25.8507H17.9902V35.6916C17.9902 36.8666 18.8744 37.7479 20.0534 37.7479H25.8007H36.2639Z" fill="#B3E9DD"/>
<path d="M22.7061 7.6377C24.8222 7.6377 26.5377 5.92794 26.5377 3.81885C26.5377 1.70976 24.8222 0 22.7061 0C20.59 0 18.8745 1.70976 18.8745 3.81885C18.8745 5.92794 20.59 7.6377 22.7061 7.6377Z" fill="#2D3D54"/>
<path d="M36.7932 7.44186C38.855 7.44186 40.5265 5.77594 40.5265 3.72093C40.5265 1.66592 38.855 0 36.7932 0C34.7313 0 33.0598 1.66592 33.0598 3.72093C33.0598 5.77594 34.7313 7.44186 36.7932 7.44186Z" fill="#2D3D54"/>
<mask id="mask0_2154_88" style="mask-type:alpha" maskUnits="userSpaceOnUse" x="14" y="10" width="35" height="28">
<path d="M36.2639 37.7479H40.9797C42.1586 37.7479 43.0428 36.8666 43.0428 35.6916V27.4663H46.2849C47.906 27.4663 49.0849 25.8507 48.4955 24.3819L44.0744 12.7785C43.4849 11.3097 42.1586 10.4284 40.5376 10.4284H35.2323H27.2744H19.4639C16.6639 10.4284 14.4534 12.6316 14.4534 15.4223V24.235C14.4534 25.1163 15.1902 25.8507 16.0744 25.8507H17.9902V35.6916C17.9902 36.8666 18.8744 37.7479 20.0534 37.7479H25.8007H36.2639Z" fill="#F9C6B1"/>
</mask>
<g mask="url(#mask0_2154_88)">
<rect x="12.9797" y="9" width="18" height="31" fill="#F9C6B1"/>
</g>
<path d="M27.2744 10.4284H19.4639C16.6639 10.4284 14.4534 12.6316 14.4534 15.4223V24.235C14.4534 25.1163 15.1902 25.8507 16.0744 25.8507H17.9902V35.6916C17.9902 36.8666 18.8744 37.7479 20.0534 37.7479H25.8007" stroke="#2D3D54" stroke-width="2" stroke-miterlimit="10" stroke-linecap="square" stroke-linejoin="round"/>
<path d="M35.2324 10.4284H40.5377C42.0114 10.4284 43.4851 11.3097 44.0745 12.7785L48.4956 24.3819C49.0851 25.8507 47.9061 27.4663 46.2851 27.4663H43.0429V35.6916C43.0429 36.8666 42.1587 37.7479 40.9798 37.7479H36.264" stroke="#2D3D54" stroke-width="2" stroke-miterlimit="10" stroke-linecap="square" stroke-linejoin="round"/>
<path d="M31.1059 20.7099C32.6523 20.7099 33.9059 19.4605 33.9059 17.9192C33.9059 16.378 32.6523 15.1285 31.1059 15.1285C29.5595 15.1285 28.3059 16.378 28.3059 17.9192C28.3059 19.4605 29.5595 20.7099 31.1059 20.7099Z" fill="#2D3D54"/>
<path d="M33.6112 37.7479V33.3415H35.9691V26.4382C35.9691 24.9694 34.7902 23.6475 33.1691 23.6475H28.8955C27.4218 23.6475 26.0955 24.8225 26.0955 26.4382V33.4884H28.4534V37.8947" fill="white"/>
<path d="M33.6112 37.7479V33.3415H35.9691V26.4382C35.9691 24.9694 34.7902 23.6475 33.1691 23.6475H28.8955C27.4218 23.6475 26.0955 24.8225 26.0955 26.4382V33.4884H28.4534V37.8947" stroke="#2D3D54" stroke-width="2" stroke-miterlimit="10" stroke-linecap="square" stroke-linejoin="round"/>
</svg>
