<svg width="56" height="56" viewBox="0 0 56 56" fill="none" xmlns="http://www.w3.org/2000/svg">
<path d="M30.3335 49.5763C30.3335 47.677 29.1937 45.9597 27.4308 45.2538C25.0042 44.2832 21.1647 43.1667 16.3335 43.1667C11.5023 43.1667 7.66283 44.2832 5.23616 45.2538C3.47333 45.9597 2.3335 47.6782 2.3335 49.5763V53.6667H30.3335V49.5763Z" fill="#B3E9DD" stroke="#203248" stroke-width="2" stroke-miterlimit="10" stroke-linecap="round" stroke-linejoin="round"/>
<path d="M30.3335 32.6293C32.556 31.9643 35.265 31.5 38.5002 31.5C44.3172 31.5 48.1345 33.0003 50.4853 34.4785C52.4908 35.7408 53.6668 37.9785 53.6668 40.348V53.6667H38.5002" fill="#F9C6B1"/>
<path d="M30.3335 32.6293C32.556 31.9643 35.265 31.5 38.5002 31.5C44.3172 31.5 48.1345 33.0003 50.4853 34.4785C52.4908 35.7408 53.6668 37.9785 53.6668 40.348V53.6667H38.5002" stroke="#203248" stroke-width="2" stroke-miterlimit="10" stroke-linecap="round" stroke-linejoin="round"/>
<path d="M7 26.8333C7 21.679 11.179 17.5 16.3333 17.5C21.4877 17.5 25.6667 21.679 25.6667 26.8333C25.6667 31.9877 21.4877 37.3333 16.3333 37.3333C11.179 37.3333 7 31.9877 7 26.8333Z" fill="#FFDE9E" stroke="#203248" stroke-width="2" stroke-miterlimit="10" stroke-linecap="round" stroke-linejoin="round"/>
<path d="M16.3335 34C18.5426 34 20.3335 32.2091 20.3335 30H12.3335C12.3335 32.2091 14.1244 34 16.3335 34Z" fill="#2D3D54"/>
<path d="M28 12.8333C28 7.03383 32.7005 2.33333 38.5 2.33333C44.2995 2.33333 49 7.03383 49 12.8333C49 18.6328 44.2995 25.6667 38.5 25.6667C32.7005 25.6667 28 18.6328 28 12.8333Z" fill="#FFDE9E" stroke="#203248" stroke-width="2" stroke-miterlimit="10" stroke-linecap="round" stroke-linejoin="round"/>
<path d="M38.5 22C41.2614 22 43.5 19.3137 43.5 16H33.5C33.5 19.3137 35.7386 22 38.5 22Z" fill="#2D3D54"/>
</svg>
