<svg width="56" height="56" viewBox="0 0 56 56" fill="none" xmlns="http://www.w3.org/2000/svg">
<path d="M35 35H21C13.2685 35 7 41.2685 7 49V51.3333C7 51.3333 14.2917 53.6667 28 53.6667C41.7083 53.6667 49 51.3333 49 51.3333V49C49 41.2685 42.7315 35 35 35Z" fill="#B3E9DD" stroke="#2D3D54" stroke-width="2" stroke-miterlimit="10" stroke-linecap="round" stroke-linejoin="round"/>
<path d="M16.3335 14C16.3335 7.5565 21.5567 2.33333 28.0002 2.33333C34.4437 2.33333 39.6668 7.5565 39.6668 14C39.6668 20.4435 34.4437 28 28.0002 28C21.5567 28 16.3335 20.4435 16.3335 14Z" fill="#F9C6B1" stroke="#2D3D54" stroke-width="2" stroke-miterlimit="10" stroke-linecap="round" stroke-linejoin="round"/>
<path d="M28 23.5385C31.3137 23.5385 34 21.0588 34 18H22C22 21.0588 24.6863 23.5385 28 23.5385Z" fill="#2D3D54"/>
</svg>
